<?xml version="1.0" standalone="no"?>
<!DOCTYPE svg PUBLIC "-//W3C//DTD SVG 20010904//EN"
 "http://www.w3.org/TR/2001/REC-SVG-20010904/DTD/svg10.dtd">
<svg version="1.0" xmlns="http://www.w3.org/2000/svg"
 width="395.000000pt" height="363.000000pt" viewBox="0 0 395.000000 363.000000"
 preserveAspectRatio="xMidYMid meet">

<g transform="translate(0.000000,363.000000) scale(0.100000,-0.100000)"
fill="#000000" stroke="none">
<path d="M1832 3606 c-245 -47 -452 -155 -622 -326 -372 -372 -447 -948 -183
-1402 252 -434 760 -656 1252 -549 571 125 967 674 903 1250 -17 150 -51 264
-122 406 -153 305 -414 514 -749 602 -120 31 -362 41 -479 19z m370 -120 c380
-74 707 -376 824 -761 25 -82 28 -104 28 -255 0 -139 -3 -177 -22 -243 -48
-175 -148 -342 -282 -478 -231 -232 -544 -348 -834 -310 -462 62 -849 446
-917 910 -72 497 317 1022 842 1136 85 18 269 19 361 1z"/>
<path d="M1693 2877 c-390 -328 -638 -544 -630 -548 6 -3 155 -42 330 -85 174
-43 317 -81 317 -85 0 -3 -54 -45 -121 -94 -96 -70 -123 -85 -130 -74 -5 8
-17 26 -26 42 -10 15 -20 27 -23 27 -6 0 -90 -273 -85 -278 2 -2 66 0 144 4
l140 7 -24 29 c-14 16 -25 34 -25 40 0 5 59 70 132 144 116 119 134 133 157
128 14 -4 30 -10 35 -15 5 -4 -17 -81 -50 -176 -65 -185 -59 -178 -142 -159
l-33 8 67 -129 c37 -70 69 -130 71 -132 2 -3 49 40 104 95 l99 99 -42 8 c-24
5 -44 10 -45 11 -4 3 56 348 60 353 3 2 20 0 38 -4 l33 -9 43 -180 c23 -98 41
-184 39 -190 -2 -5 -23 -16 -46 -23 l-41 -12 121 -76 c67 -41 124 -73 127 -70
3 4 71 258 73 274 0 2 -20 -7 -45 -19 -28 -14 -48 -18 -54 -12 -10 9 -122 276
-118 280 1 1 153 -35 337 -81 184 -45 336 -79 338 -76 2 6 -352 1154 -459
1489 -6 17 -14 32 -17 32 -4 -1 -296 -245 -649 -543z m774 -244 c100 -318 180
-579 179 -581 -5 -4 -1346 332 -1345 338 1 9 964 818 975 819 5 1 92 -259 191
-576z"/>
</g>
</svg>
