<?xml version="1.0" encoding="UTF-8"?>
<!DOCTYPE svg PUBLIC "-//W3C//DTD SVG 1.1//EN" "http://www.w3.org/Graphics/SVG/1.1/DTD/svg11.dtd">
<svg xmlns="http://www.w3.org/2000/svg" version="1.1" width="395px" height="383px" style="shape-rendering:geometricPrecision; text-rendering:geometricPrecision; image-rendering:optimizeQuality; fill-rule:evenodd; clip-rule:evenodd" xmlns:xlink="http://www.w3.org/1999/xlink">
<g><path style="opacity:0.913" fill="#000000" d="M 182.5,-0.5 C 191.167,-0.5 199.833,-0.5 208.5,-0.5C 262.297,7.50436 298.464,37.171 317,88.5C 330.672,139.654 318.839,183.821 281.5,221C 242.611,253.54 198.944,261.874 150.5,246C 103.982,226.808 76.8157,192.308 69,142.5C 64.6807,86.6358 86.1807,44.1358 133.5,15C 149.033,6.87577 165.366,1.7091 182.5,-0.5 Z M 182.5,11.5 C 240.132,10.6494 280.299,36.6494 303,89.5C 317.173,139.646 304.34,181.479 264.5,215C 218.754,248.618 172.754,248.951 126.5,216C 81.4981,178.159 69.9981,131.993 92,77.5C 111.957,41.3604 142.123,19.3604 182.5,11.5 Z M 222.5,42.5 C 236.714,85.4936 250.714,128.66 264.5,172C 214.131,160.158 163.798,147.825 113.5,135C 149.905,104.149 186.238,73.3153 222.5,42.5 Z"/></g>
<g><path style="opacity:0.9" fill="#000000" d="M 228.5,21.5 C 229.497,21.4701 230.164,21.9701 230.5,23C 247.641,78.0885 264.974,133.088 282.5,188C 257.536,183.052 232.702,177.218 208,170.5C 207.5,170.667 207,170.833 206.5,171C 211.191,181.401 215.691,191.901 220,202.5C 220.414,202.957 220.914,203.291 221.5,203.5C 224.167,202.167 226.833,200.833 229.5,199.5C 229.833,200.167 230.167,200.833 230.5,201.5C 228.333,210.167 226.167,218.833 224,227.5C 223.586,227.957 223.086,228.291 222.5,228.5C 214.5,223.5 206.5,218.5 198.5,213.5C 200.858,211.713 203.525,210.713 206.5,210.5C 203.659,196.136 200.659,181.803 197.5,167.5C 194.52,167.38 191.687,166.713 189,165.5C 186.071,179.072 183.571,192.738 181.5,206.5C 183.884,206.443 186.218,206.777 188.5,207.5C 189.932,207.733 190.432,208.4 190,209.5C 183.031,215.468 176.364,221.801 170,228.5C 165.245,219.99 160.745,211.324 156.5,202.5C 157,202.167 157.5,201.833 158,201.5C 160.478,202.245 162.978,202.911 165.5,203.5C 166.647,203.182 167.481,202.516 168,201.5C 172.308,188.907 176.808,176.407 181.5,164C 178.45,163.321 175.45,162.488 172.5,161.5C 162.875,171.626 153.042,181.626 143,191.5C 144.113,194.181 145.613,196.847 147.5,199.5C 137.856,200.498 128.19,200.832 118.5,200.5C 121.023,190.763 123.856,181.096 127,171.5C 129.36,174.36 131.527,177.36 133.5,180.5C 142.833,173.5 152.167,166.5 161.5,159.5C 137.078,153.145 112.745,146.645 88.5,140C 135.358,100.635 182.024,61.1354 228.5,21.5 Z M 222.5,42.5 C 186.238,73.3153 149.905,104.149 113.5,135C 163.798,147.825 214.131,160.158 264.5,172C 250.714,128.66 236.714,85.4936 222.5,42.5 Z"/></g>
<g><path style="opacity:0.898" fill="#000000" d="M -0.5,327.5 C -0.5,326.5 -0.5,325.5 -0.5,324.5C 8.55907,308.053 17.3924,291.387 26,274.5C 35.4214,291.675 44.5881,309.008 53.5,326.5C 49.5,327.833 45.5,327.833 41.5,326.5C 36.5886,316.343 31.4219,306.343 26,296.5C 21,306.5 16,316.5 11,326.5C 7.27002,327.46 3.43669,327.793 -0.5,327.5 Z"/></g>
<g><path style="opacity:0.929" fill="#000000" d="M 55.5,274.5 C 58.8333,274.5 62.1667,274.5 65.5,274.5C 65.037,287.932 65.537,301.265 67,314.5C 67.9025,315.701 69.0692,316.535 70.5,317C 80.1609,317.5 89.8276,317.666 99.5,317.5C 99.5,320.833 99.5,324.167 99.5,327.5C 88.495,327.667 77.495,327.5 66.5,327C 61.2425,324.744 57.7425,320.91 56,315.5C 55.5001,301.837 55.3334,288.171 55.5,274.5 Z"/></g>
<g><path style="opacity:0.921" fill="#000000" d="M 120.5,274.5 C 131.5,274.5 142.5,274.5 153.5,274.5C 153.5,277.833 153.5,281.167 153.5,284.5C 143.161,284.334 132.828,284.5 122.5,285C 110.348,290.811 107.515,299.644 114,311.5C 116.408,313.956 119.241,315.789 122.5,317C 132.828,317.5 143.161,317.666 153.5,317.5C 153.5,320.833 153.5,324.167 153.5,327.5C 142.495,327.667 131.495,327.5 120.5,327C 103.131,320.764 96.9641,308.598 102,290.5C 105.937,282.468 112.104,277.135 120.5,274.5 Z"/></g>
<g><path style="opacity:0.916" fill="#000000" d="M 160.5,274.5 C 164.167,274.5 167.833,274.5 171.5,274.5C 171.5,280.833 171.5,287.167 171.5,293.5C 182.5,293.5 193.5,293.5 204.5,293.5C 204.5,287.167 204.5,280.833 204.5,274.5C 207.833,274.5 211.167,274.5 214.5,274.5C 214.5,292.167 214.5,309.833 214.5,327.5C 211.167,327.5 207.833,327.5 204.5,327.5C 204.5,319.5 204.5,311.5 204.5,303.5C 193.5,303.5 182.5,303.5 171.5,303.5C 171.5,311.5 171.5,319.5 171.5,327.5C 167.833,327.5 164.167,327.5 160.5,327.5C 160.5,309.833 160.5,292.167 160.5,274.5 Z"/></g>
<g><path style="opacity:0.929" fill="#000000" d="M 231.5,274.5 C 246.167,274.5 260.833,274.5 275.5,274.5C 275.5,277.833 275.5,281.167 275.5,284.5C 261.829,284.333 248.163,284.5 234.5,285C 231.875,287.196 230.875,290.03 231.5,293.5C 242.833,293.5 254.167,293.5 265.5,293.5C 265.5,296.833 265.5,300.167 265.5,303.5C 254.167,303.5 242.833,303.5 231.5,303.5C 231.335,306.85 231.502,310.183 232,313.5C 232.465,314.931 233.299,316.097 234.5,317C 248.163,317.5 261.829,317.667 275.5,317.5C 275.5,320.833 275.5,324.167 275.5,327.5C 260.83,327.667 246.163,327.5 231.5,327C 226.6,325.098 223.433,321.598 222,316.5C 221.333,306.167 221.333,295.833 222,285.5C 223.627,280.382 226.793,276.715 231.5,274.5 Z"/></g>
<g><path style="opacity:0.9" fill="#000000" d="M 282.5,274.5 C 291.543,280.784 300.376,287.451 309,294.5C 317.692,287.641 326.525,280.975 335.5,274.5C 336.5,292.154 336.833,309.821 336.5,327.5C 332.833,327.5 329.167,327.5 325.5,327.5C 325.667,316.828 325.5,306.161 325,295.5C 319.667,299.5 314.333,303.5 309,307.5C 303.69,303.691 298.524,299.691 293.5,295.5C 292.501,306.146 292.168,316.813 292.5,327.5C 289.167,327.5 285.833,327.5 282.5,327.5C 282.5,309.833 282.5,292.167 282.5,274.5 Z"/></g>
<g><path style="opacity:0.886" fill="#000000" d="M 340.5,274.5 C 344.846,274.334 349.179,274.501 353.5,275C 358,280.833 362.5,286.667 367,292.5C 371.5,286.667 376,280.833 380.5,275C 384.833,274.333 389.167,274.333 393.5,275C 386.667,283.833 379.833,292.667 373,301.5C 372.5,310.16 372.334,318.827 372.5,327.5C 368.833,327.5 365.167,327.5 361.5,327.5C 361.666,318.827 361.5,310.16 361,301.5C 353.926,292.605 347.093,283.605 340.5,274.5 Z"/></g>
<g><path style="opacity:0.098" fill="#000000" d="M 339.5,327.5 C 340.833,328.167 340.833,328.167 339.5,327.5 Z"/></g>
<g><path style="opacity:0.098" fill="#000000" d="M 392.5,327.5 C 393.833,328.167 393.833,328.167 392.5,327.5 Z"/></g>
<g><path style="opacity:0.839" fill="#000000" d="M 303.5,382.5 C 296.833,382.5 290.167,382.5 283.5,382.5C 283.5,371.167 283.5,359.833 283.5,348.5C 290.841,348.334 298.174,348.5 305.5,349C 316.763,353.704 320.263,361.87 316,373.5C 312.764,377.918 308.598,380.918 303.5,382.5 Z M 290.5,355.5 C 295.179,355.334 299.845,355.501 304.5,356C 312.233,360.521 313.233,366.187 307.5,373C 302.1,375.278 296.434,376.111 290.5,375.5C 290.5,368.833 290.5,362.167 290.5,355.5 Z"/></g>
<g><path style="opacity:0.837" fill="#000000" d="M 355.5,382.5 C 346.833,382.5 338.167,382.5 329.5,382.5C 325.711,381.667 323.211,379.334 322,375.5C 321.069,367.728 321.402,360.061 323,352.5C 324.214,350.951 325.714,349.785 327.5,349C 336.827,348.5 346.161,348.334 355.5,348.5C 355.5,350.833 355.5,353.167 355.5,355.5C 346.827,355.334 338.16,355.5 329.5,356C 328.62,357.356 328.286,358.856 328.5,360.5C 335.5,360.5 342.5,360.5 349.5,360.5C 349.5,362.833 349.5,365.167 349.5,367.5C 342.5,367.5 335.5,367.5 328.5,367.5C 328.232,370.119 328.565,372.619 329.5,375C 338.16,375.5 346.827,375.666 355.5,375.5C 355.5,377.833 355.5,380.167 355.5,382.5 Z"/></g>
<g><path style="opacity:0.83" fill="#000000" d="M 375.5,382.5 C 375.167,382.5 374.833,382.5 374.5,382.5C 368.987,371.309 363.321,360.142 357.5,349C 360.429,348.223 363.263,348.39 366,349.5C 369,355.5 372,361.5 375,367.5C 378.421,361.658 381.588,355.658 384.5,349.5C 387.106,348.348 389.773,348.182 392.5,349C 386.692,360.115 381.026,371.282 375.5,382.5 Z"/></g>
</svg>
